Coordinates
version=1
nRows=6
nColumns=34
inDegrees=yes

Units are S.I. units (second, meters, Newtons, ...)
If the header above contains a line with 'inDegrees', this indicates whether rotational values are in degrees (yes) or radians (no).

endheader
time	pelvis_tilt	pelvis_list	pelvis_rotation	pelvis_tx	pelvis_ty	pelvis_tz	hip_flexion_r	hip_adduction_r	hip_rotation_r	knee_angle_r	ankle_angle_r	subtalar_angle_r	mtp_angle_r	hip_flexion_l	hip_adduction_l	hip_rotation_l	knee_angle_l	ankle_angle_l	subtalar_angle_l	mtp_angle_l	lumbar_extension	lumbar_bending	lumbar_rotation	arm_flex_r	arm_add_r	arm_rot_r	elbow_flex_r	pro_sup_r	arm_flex_l	arm_add_l	arm_rot_l	elbow_flex_l	pro_sup_l
      2.91666670	    -25.88755592	      0.25933017	     -0.77408974	      0.63514615	      0.53799036	     -0.13467475	    105.15776536	    -22.29435671	      5.82892824	    110.00214722	     35.86754224	     11.13203111	      0.00000000	    107.40264158	    -17.30945825	      5.22181953	    110.54221224	     34.15385316	      8.84248409	      0.00000000	    -44.81308525	      3.49231032	      0.45337861	    112.10145787	    -11.21371082	     43.44722814	     75.63834088	     97.13878944	    110.29376326	    -21.74576386	     40.68743042	     77.01201394	     86.12853144
      2.93333330	    -25.88780062	      0.44662828	     -0.80469479	      0.63981961	      0.54895888	     -0.13256035	    103.29475454	    -20.73661225	      5.61659912	    108.43054652	     35.59256558	      9.47621163	      0.00000000	    105.28269474	    -17.32736893	      4.79425787	    108.58345538	     34.00827284	      8.11537416	      0.00000000	    -45.04321482	      2.93567100	      2.12184112	    114.40434382	    -13.88867593	     49.20497884	     66.55490462	     94.28438007	    109.57388334	    -20.08993850	     40.77557928	     67.68206814	     83.95375803
      2.95000000	    -26.13270840	      0.57427645	     -0.47352101	      0.64332362	      0.56345510	     -0.12615056	    101.31415757	    -19.56024725	      5.30829281	    106.67065589	     35.17619157	      7.69718705	      0.00000000	    103.15460093	    -16.90143608	      4.45438585	    106.26061948	     33.66669454	      7.60219644	      0.00000000	    -44.60194453	      2.35342835	      2.71696845	    113.99193128	    -16.30377015	     54.18101020	     58.57580919	     88.85793238	    108.79952113	    -20.05418964	     43.75001105	     57.57734495	     80.92316428
      2.96666670	    -26.18377881	      0.72182820	     -0.42634758	      0.64909639	      0.57783598	     -0.12567717	     98.62225654	    -18.31672510	      4.93683277	    104.54788496	     34.92724075	      6.51030977	      0.00000000	    100.34808351	    -16.75108560	      3.73596439	    103.26922661	     33.54836105	      6.94906145	      0.00000000	    -43.59756996	      1.93618389	      2.66017035	    110.65272925	    -17.97198747	     57.37613221	     50.63255094	     86.52207709	    106.15416623	    -21.83015469	     47.17319450	     47.22031749	     79.02210298
      2.98333330	    -25.88475120	      0.99182441	     -0.60101620	      0.65353801	      0.59259671	     -0.12500611	     95.43084383	    -17.58244815	      4.56720197	    102.01246062	     34.83714075	      6.09087561	      0.00000000	     98.07285082	    -16.67594882	      3.74359447	    101.12405787	     32.14803811	      6.64916155	      0.00000000	    -42.49585131	      1.22862917	      2.57659317	    105.42786265	    -20.33813192	     60.66153899	     42.43307062	     85.01447297	    102.37915140	    -23.78326534	     52.05435252	     36.56981887	     77.11350660
      3.00000000	    -25.42000584	      0.80516252	     -0.45184270	      0.66180614	      0.60685984	     -0.12386116	     92.45464214	    -17.92486830	      3.87834095	     99.11674782	     33.96170903	      6.75648158	      0.00000000	     95.14511664	    -15.93149664	      3.64296332	     98.99357445	     31.45544373	      5.17535566	      0.00000000	    -41.03901891	      1.28076007	      2.61093831	     98.04123686	    -23.73688404	     65.37339101	     36.37760104	     77.38791997	     97.95101525	    -26.69694500	     68.93531687	     25.88593916	     64.40060825
